<?xml version="1.0" encoding="UTF-8"?>
<svg width="685pt" height="600pt" version="1.1" viewBox="0 0 685 600" xmlns="http://www.w3.org/2000/svg">
 <g id="surface1" fill-rule="evenodd" stroke="#020404" stroke-miterlimit="2.613">
  <path transform="scale(3.4526 3.4562)" d="m197.46 164.74-93.339-161.8-0.57814-0.86348-0.71843-0.64874-0.78971-0.57415-0.93679-0.43287-0.93453-0.28594-1.0069-0.073463-1.0047 0.073463-1.0069 0.28594-0.86325 0.43287-0.86325 0.57415-0.64942 0.64874-0.57361 0.86348-93.339 161.8-0.43445 0.93355-0.2885 0.93807-0.070146 1.007 0.070146 1.0048 0.2885 1.007 0.43445 0.86348 0.57361 0.86348 0.64489 0.64874 0.86325 0.57415 0.86325 0.42948 1.0081 0.28933 1.0069 0.070073h186.68l1.0069-0.070073 0.93339-0.28933 0.93452-0.42948 0.7931-0.57415 0.71843-0.64874 0.57361-0.86348 0.43445-0.86348 0.28511-1.007 0.07354-1.0048-0.07354-1.007-0.28511-0.93807z" fill="#020404" stroke-width=".12784"/>
  <path transform="scale(3.4526 3.4562)" d="m99.158 18.115 82.699 143.39h-165.4z" fill="#ebbf2a" stroke-width=".12784"/>
  <path transform="scale(3.4526 3.4562)" d="m161.5 147.47 0.14482 0.18422 0.10861 0.21813 0.10974 0.50407 0.070146 1.0161-0.035073 0.50746-0.10861 0.51198-0.25456 0.46791-0.3281 0.36393-0.43332 0.28933-0.47292 0.18309-0.94131 0.39896-0.94471 0.32776-0.98091 0.28933-0.97639 0.21474-1.0194 0.14806-2.032 0.10511h-2.0308l-1.016-0.035036-1.0149-0.10963-1.016-0.14354-0.98091-0.1797-1.0149-0.2543-0.94584-0.32776-3.8082-1.4501-1.9222-0.65552-1.9607-0.50407-1.016-0.18422-1.016-0.14354-1.0149-0.10963h-1.016l-1.0194 0.035037-0.97639 0.10963-2.032 0.3628-1.9607 0.50746-0.94131 0.32889-0.94471 0.39783-1.9222 0.6883-1.9607 0.58206-1.9618 0.46791-2.0308 0.2543-1.016 0.074593h-1.0149l-1.016-0.074593-1.016-0.14467-1.9958-0.434-1.9607-0.5425-1.9222-0.65665-1.886-0.76176-0.94244-0.32324-0.97978-0.2543-1.9958-0.39896-2.032-0.21813h-1.0149l-1.0205 0.035037-1.0149 0.10963-1.016 0.18309-1.9573 0.46904-1.9607 0.61709-3.7732 1.4534-0.98091 0.32437-0.97978 0.2882-1.9924 0.40235-2.0354 0.1797-2.0308 0.035036-1.016-0.035036-1.016-0.1085-0.97978-0.1797-1.016-0.18422-0.98091-0.28933-0.94131-0.2882-3.8116-1.4534-1.9222-0.65213-1.9958-0.50859-0.98091-0.1797-1.016-0.14354-1.0149-0.074594h-1.016l-2.0308 0.18309-1.9969 0.32437-1.9607 0.54702-1.8872 0.75837-1.9211 0.69056-1.9607 0.57867-1.9573 0.43739-2.032 0.28933-2.0342 0.073464-0.50799-0.073464-0.47292-0.10963-0.46839-0.21926-0.43785-0.2882-0.39825-0.32437-0.32471-0.36393-0.29303-0.43739-0.21496-0.43287-0.18328-0.50859-0.10974-0.47243-0.035073-1.0161 1.9222 0.29385 1.9256 0.1797 1.9222-0.036166 0.97978-0.1085 0.94245-0.14467 1.8509-0.50746 1.8521-0.65665 3.5899-1.3404 1.886-0.50746 0.94584-0.14467 0.94471-0.10963 1.9573-0.14354h1.9222l1.9256 0.1085 1.886 0.32437 1.8872 0.50859 1.8125 0.61709 3.6295 1.3438 1.8509 0.5425 0.94131 0.1797 0.98091 0.10963 1.9256 0.14467h0.94131l0.98091-0.071204 1.9211-0.25317 0.94584-0.21926 0.90624-0.25317 1.8509-0.61822 1.7774-0.68717 1.8125-0.65213 1.8521-0.54702 0.94131-0.21474 0.98091-0.18309 1.9256-0.1797h1.9211l1.9222 0.1085 1.9256 0.1797 1.8872 0.434 1.8125 0.62161 1.8125 0.68717 1.8159 0.68717 1.8521 0.54702 1.8872 0.32437 0.97639 0.073464h0.94471l1.9222-0.073464 1.9256-0.21926 0.94131-0.2882 0.90624-0.28933 1.817-0.65213 1.8125-0.69169 1.8159-0.61709 1.8872-0.46904 1.9211-0.2543 1.9222-0.1085h1.9256l1.9222 0.1797 1.8872 0.32776 1.886 0.5425 1.817 0.65213 1.7774 0.69169 1.8509 0.65213 1.8476 0.47356 0.94584 0.14467 0.97978 0.1085 1.9222 0.10624 1.9222 0.038427 0.97978-0.10963 0.94584-0.18309 1.8476-0.50746 1.8509-0.54363z" fill="#020404" stroke-width=".027966"/>
  <path transform="scale(3.4526 3.4562)" d="m161.5 139.49-1.8509 0.61709-1.8521 0.58206-1.8476 0.47243-0.94584 0.21474-0.97978 0.10963-1.9222-0.035036-1.9222-0.10963-0.97978-0.10963-0.94584-0.14354-1.8476-0.50859-1.8509-0.61709-1.7774-0.68717-1.817-0.65213-1.886-0.54702-1.8872-0.36393-1.9222-0.14354h-1.9256l-1.9222 0.1085-1.9211 0.2543-1.8872 0.47243-1.8159 0.61709-1.8125 0.6883-1.817 0.61709-0.90624 0.32324-0.94131 0.25882-1.9256 0.25317-1.9222 0.070073-0.94471-0.035036-0.97639-0.035037-1.8872-0.32776-1.8521-0.58206-1.8159-0.65213-1.8125-0.6883-1.8125-0.61709-1.8872-0.47243-1.9256-0.1797-1.9222-0.10963-1.9211 0.036167-1.9256 0.18309-0.98091 0.1797-0.94131 0.1797-1.8521 0.58206-1.8125 0.65213-1.7774 0.69169-1.8509 0.6137-0.90624 0.25769-0.94584 0.21474-1.9211 0.25317-0.98091 0.039557h-0.94131l-1.9256-0.10963-0.98091-0.14467-0.94131-0.18309-1.8509-0.50746-3.6295-1.3438-1.8125-0.65326-1.886-0.50746-1.8872-0.28933-1.9256-0.14467-1.9222 0.036167-1.9573 0.14467-0.94471 0.1085-0.94584 0.14467-1.886 0.50746-3.5899 1.3438-1.8521 0.65326-1.8509 0.47243-0.94245 0.1797-0.97978 0.073464-1.9222 0.036166-1.9256-0.14467-1.9222-0.32889 0.035073 1.0161 0.10974 0.50746 0.18328 0.47243 0.21496 0.47356 0.29303 0.39783 0.32471 0.39896 0.39825 0.32437 0.43785 0.29272 0.46839 0.1797 0.47292 0.14806 0.50799 0.035037 2.0342-0.035037 2.032-0.29272 1.9573-0.434 1.9607-0.61709 1.9211-0.69169 1.8872-0.7222 1.9607-0.5425 1.9969-0.36393 2.0308-0.14467h1.016l1.0149 0.071203 1.016 0.1085 0.98091 0.21926 1.9958 0.50746 1.9222 0.6137 3.8116 1.4523 0.94131 0.32889 0.98091 0.25317 1.016 0.21587 0.97978 0.14354 1.016 0.10963 1.016 0.035036h2.0308l2.0354-0.21474 1.9924-0.3628 0.97978-0.29272 0.98091-0.32437 1.886-0.76176 1.8872-0.6883 1.9607-0.61709 1.9573-0.47243 1.016-0.1797 1.0149-0.10963 1.0205-0.073464 1.0149 0.038427 2.032 0.1797 1.9958 0.39896 0.98091 0.28933 0.94131 0.32776 1.886 0.72672 1.9222 0.65213 1.9607 0.57754 1.9958 0.40235 1.016 0.14467 1.016 0.10963h1.0149l1.016-0.074593 2.032-0.2882 1.9607-0.43739 1.9607-0.57867 1.9222-0.69169 0.94471-0.39783 0.94131-0.32889 1.9607-0.50294 2.032-0.36393 0.97639-0.10963 1.0194-0.073464 1.016 0.038427 1.0149 0.071203 1.016 0.14354 1.016 0.21926 1.9607 0.50746 1.9222 0.65213 3.8082 1.4534 0.94584 0.28933 1.0149 0.2543 0.98091 0.21813 1.016 0.14467 1.0149 0.070073 1.016 0.035036h2.0308l2.032-0.070073 1.0194-0.14467 0.97639-0.21813 0.98091-0.28933 0.94471-0.36393 0.94131-0.3628 0.47292-0.21813 0.43332-0.2543 0.3281-0.39896 0.25456-0.46791 0.10861-0.47356 0.035073-0.50746-0.070146-1.0161-0.10974-0.50746-0.10861-0.21813z" fill="#020404" stroke-width=".027966"/>
  <path transform="scale(3.4526 3.4562)" d="m82.357 125.75h-23.258l-0.76142-3.0086 0.035073-0.32776 0.21836-0.29272 0.3281-0.070073h20.973l0.54307 0.1085 0.47292 0.28933 0.2885 0.47243zm15.097-51.907 4.5357 16.145h-1.9607l-8.2738-16.652 0.2885-0.2543 0.3281-0.1797 0.72748-0.21813h0.76142l0.76142 0.10963 0.72635 0.1797 0.72748 0.25317zm8.0159-0.1797v16.325h-1.9924l-4.6093-16.325 0.69128-0.58206 0.79763-0.43287 0.87117-0.28933 0.90624-0.074594 0.90624 0.14467 0.87117 0.28933 0.79989 0.43739zm8.0589 0.10963-4.6443 16.215h-1.9969v-16.325l0.76255-0.50746 0.7965-0.43739 0.87117-0.32437 0.43785-0.074594 0.4684-0.035036 0.47292 0.035036 0.43332 0.10963 0.87117 0.32889 0.80102 0.46791zm7.0746-0.43739-8.2738 16.652h-1.9573l4.6059-16.18 1.3792-0.61709 0.69128-0.2543 0.72635-0.1797 0.76142-0.073463 0.72635 0.035036 0.72296 0.18309 0.3281 0.1797zm-13.028 21.836-0.10974-0.57754-0.25343-0.50859-0.39825-0.39783-0.50799-0.2543-0.58153-0.10963-0.57814 0.10963-0.50799 0.2543-0.39825 0.39783-0.25796 0.50859-0.10635 0.57754 0.10635 0.58206 0.25796 0.50859 0.39825 0.39783 0.50799 0.2543 0.57814 0.10963 0.58153-0.10963 0.50799-0.2543 0.39825-0.39783 0.25343-0.50859zm4.0277-3.7692-3.2267 6.527-0.25456-0.25317-0.3281-0.10963-0.36318-0.035036-2.5388 0.43287-0.36318 0.18422-0.2885 0.28933-3.5197-7.0355zm10.125-17.16-12.883 25.902 1.016 6.0545v0.36393l-0.14482 0.3628-0.25343 0.32437-3.8445 3.1205 3.3365 3.6641 0.21836 0.39896 0.074672 0.43739-0.10974 0.39896-0.25343 0.35941-0.39825 0.21813-0.43785 0.074594-0.39825-0.10963-0.36318-0.2543-0.25456-0.32776-0.14482 0.43739-0.25343 0.32437-0.36318 0.21813-0.43785 0.074594-0.39825-0.11302-0.36318-0.28933-4.0979-4.531-0.21836-0.39896-0.074672-0.43739 0.14821-0.43287 0.25004-0.36393 4.2857-3.4449-0.80102-4.5706-13.168 23.976h12.77l3.0118 9.1762-1.6326-0.65213-1.7073-0.47243-1.7378-0.32889-1.7774-0.1797h-1.7819l-1.7774 0.1797-1.7423 0.32889-1.7027 0.47243-1.6722 0.57754-1.6677 0.65326-1.6326 0.65552-1.7073 0.50746-1.7378 0.39896-1.7423 0.21926-1.7819 0.070073-1.7774-0.035037-1.7774-0.18422-1.7412-0.3628-1.6688-0.50859-1.6677-0.61257-3.3399-1.2342-1.7027-0.50859-1.7423-0.39783-1.7423-0.21926-1.7774-0.035037-1.7808 0.1797-1.7389 0.28933-1.7073 0.43739-0.87004 0.2543-0.79763 0.32324-1.6722 0.65665-1.6677 0.57867-7.5113-9.8678h12.918l-2.6486-3.8789-0.25456-0.5425-0.07354-0.62161 0.10861-0.61257 0.29303-0.54702 0.43445-0.434 0.7965-0.3628 0.8361-0.10963h30.699l2.6836 5.4408 13.172-23.937-13.062-26.262-0.14482-0.21926-0.074671-0.2543 0.035073-0.50746 0.3677-1.3043 0.50347-1.2704 0.6562-1.1992 0.76256-1.1596 0.83157-1.0511 0.94584-1.0161 1.0149-0.94033 1.0511-0.83635 1.1246-0.7968 1.1993-0.65213 1.2343-0.61709 1.2694-0.47356 1.3056-0.39783 1.343-0.28933 1.3792-0.14806 1.3792-0.035036 1.3441 0.14806 1.3396 0.2543 1.343 0.35941 1.2705 0.47243 1.2343 0.58206 1.1947 0.68717 1.1642 0.72672 1.0511 0.87139 1.0149 0.90191 0.98091 0.97989 0.8361 1.0556 0.7965 1.1212 0.65281 1.1992 0.58153 1.2692 0.36318 1.3043 0.070146 0.32889v0.3628l-0.070146 0.32437z" fill="#020404" stroke-width=".027966"/>
 </g>
</svg>
