<?xml version="1.0" encoding="UTF-8"?>
<!-- Created with Inkscape (http://www.inkscape.org/) -->
<svg id="svg2" sodipodi:docbase="/home/nicu/Desktop" sodipodi:docname="goat.svg" sodipodi:version="0.32" viewBox="0 0 128 128" xmlns="http://www.w3.org/2000/svg" xmlns:cc="http://web.resource.org/cc/" xmlns:dc="http://purl.org/dc/elements/1.1/" xmlns:rdf="http://www.w3.org/1999/02/22-rdf-syntax-ns#" xmlns:sodipodi="http://inkscape.sourceforge.net/DTD/sodipodi-0.dtd" xmlns:xlink="http://www.w3.org/1999/xlink">
 <defs id="defs3">
  <linearGradient id="linearGradient13173">
   <stop id="stop13175" stop-color="#e7b078" offset="0"/>
   <stop id="stop13177" stop-color="#e7b078" stop-opacity="0" offset="1"/>
  </linearGradient>
  <linearGradient id="linearGradient7792">
   <stop id="stop7794" stop-color="#fff" offset="0"/>
   <stop id="stop7796" stop-color="#fff" stop-opacity="0" offset="1"/>
  </linearGradient>
  <linearGradient id="linearGradient3263" x1="305" x2="297.38" y1="933.36" y2="757.36" gradientTransform="matrix(.17082 0 0 .17082 3.9221 -25.446)" gradientUnits="userSpaceOnUse" xlink:href="#linearGradient13173"/>
  <linearGradient id="linearGradient3265" x1="290.79" x2="324.9" y1="530.49" y2="460.64" gradientTransform="matrix(.17082 0 0 .17082 3.9221 -25.446)" gradientUnits="userSpaceOnUse" xlink:href="#linearGradient7792"/>
  <linearGradient id="linearGradient3267" x1="128.74" x2="168.34" y1="641.77" y2="567.04" gradientTransform="matrix(.17082 0 0 .17082 3.9221 -25.446)" gradientUnits="userSpaceOnUse" xlink:href="#linearGradient7792"/>
  <linearGradient id="linearGradient3269" x1="156.98" x2="246.78" y1="302.48" y2="287.27" gradientTransform="matrix(.17082 0 0 .17082 3.9221 -25.446)" gradientUnits="userSpaceOnUse" xlink:href="#linearGradient7792"/>
  <linearGradient id="linearGradient3271" x1="571.83" x2="485.5" y1="350.7" y2="270.17" gradientTransform="matrix(.17082 0 0 .17082 3.9221 -25.446)" gradientUnits="userSpaceOnUse" xlink:href="#linearGradient7792"/>
  <linearGradient id="linearGradient3273" x1="103.69" x2="105.37" y1="40.249" y2="57.799" gradientUnits="userSpaceOnUse" xlink:href="#linearGradient7792"/>
  <linearGradient id="linearGradient3275" x1="51.897" x2="71.385" y1="-9.0477e-7" y2="18.462" gradientUnits="userSpaceOnUse" xlink:href="#linearGradient13173"/>
 </defs>
 <sodipodi:namedview id="base" bordercolor="#666666" borderopacity="1.0" pagecolor="#ffffff" showguides="true"/>
 <g id="layer1">
  <g id="g3242" transform="matrix(.94689 0 0 .94689 .21735 5.7942)" fill-rule="evenodd">
   <path id="path2437" d="m37.344 3.2188c-4.043 9.6152-6.842 22.828 1.625 30.906-6.705 9.953-1.131 23.999-9.67 33.303-3.626 1.771-9.333 10.806-4.549 15.353 1.101 4.329 3.408 7.215 5.866 8.474 3.434 2.898 8.74 3.303 12.015 5.062 3.878 7.333 2.296 16.093-1.381 23.183 3.31 2.04 10.348-3.49 10.077-2.06-1.019 4.49-7.247 14.46 1.25 8.8 4.062-0.61 7.557-5.83 8.579-7.96-0.393 10.28 3.831 0.34 6.313-3.75 3.305-9.17-4.409-16.778-7.469-24.749 5.429-6.276 2.793 2.318 6.896 4.24 9.631 5.099 23.823 0.456 28.76-9.209 0.732-8.255 2.101-16.475 2.063-24.781 8.421-0.412 16.721-2.341 23.591-7.437-6.19-7.749-16.8-14.997-26.841-9.813-1.945-4.926 6.141-5.211 7.561-9.406 7.67-9.551 2.79-22.308-2.686-31.594-0.633 8.515-0.8 18.286-8.936 23.429-3.276 3.475-6.137-3.56-10.158-3.835-2.805-1.73-3.229-7.352-7.893-8.425-8.499-4.3657-21.476-0.52-24.295 9.112-6.304-7.172-6.621-16.976-7.968-25.937-0.917 2.3646-1.834 4.7292-2.75 7.0938z"/>
   <path id="path2144" d="m39.213 3.9397c0.336 11.043 5.858 17.909 9.651 22.327 2.553 2.973-5.346 9.09-8.066 6.914-7.923-6.338-6.194-20.743-1.585-29.241z" fill="#9e4100" sodipodi:nodetypes="cssc"/>
   <path id="path2158" d="m57.165 87.752c1.825 9.651 15.083 19.178 5.96 30.268 0-4.03-2.449-7.49-2.593-11.81-0.288 3.17 1.584 15.56-9.651 18.58 2.161-4.89 3.889-10.51 3.889-17.14-1.584 4.32-5.474 10.52-10.515 9.8 4.753-9.65 2.593-18.296-0.576-23.626s8.589-1.174 13.486-6.072z" fill="#fff" sodipodi:nodetypes="ccccccsc"/>
   <path id="path13171" d="m57.165 87.752c1.825 9.651 15.083 19.178 5.96 30.268 0-4.03-2.449-7.49-2.593-11.81-0.288 3.17 1.584 15.56-9.651 18.58 2.161-4.89 3.889-10.51 3.889-17.14-1.584 4.32-5.474 10.52-10.515 9.8 4.753-9.65 2.593-18.296-0.576-23.626s8.589-1.174 13.486-6.072z" fill="url(#linearGradient3263)" sodipodi:nodetypes="ccccccsc"/>
   <path id="path2154" d="m59.859 20.691c-11.799 1.354-15.495 10.117-19.688 15.194-3.628 3.548-2.986 21.507-4.859 25.396-1.872 3.889-12.231 15.67-7.468 24.469 2.948 5.446 9.774 2.545 13.375 0.875-0.368 1.777-5.587 3.099-8.031 3.75 1.218 1.108 7.104 4.459 13.874 2.875 10.516-2.161 16.508-8.785 18.813-9.938 0.144 2.305-0.703 6.31 1.281 8.5 4.178 4.61 21.315 2.577 26.5-7.218 0.166-6.306 2.473-16.565 2.094-26.344 7.56-0.985 15.28-0.62 22.28-6.062-6.47-8.042-15.75-12.226-25.03-6.469-1.115-2.373-0.034-6.269-2.07-8.141-1.71-15.568-18.585-17.434-31.071-16.887z" fill="#e7b078" sodipodi:nodetypes="ccssccccscccccc"/>
   <path id="path8568" d="m26.51 81.728s9.784-6.04 11.475-8.576c1.691-2.537 9.784-8.335 11.354-14.012 1.571-5.677 6.49-14.944 10.992-18.402 15.494-11.901 20.631-6.715 20.414 4.511-0.175 9.058-6.16 27.661-16.186 30.319-10.026 2.657-19.042 13.08-23.554 11.233-4.284 1.814-12.724 5.601-14.495-5.073z" fill="#f7e5d3" sodipodi:nodetypes="cssssscc"/>
   <path id="path2142" d="m100.58 8.5491c12.82 24.92-12.995 32.931-15.588 33.219s-6.51-4.814-4.349-7.407c2.491-2.99 20.937-8.67 19.937-25.812z" fill="#9e4100" sodipodi:nodetypes="cssc"/>
   <path id="path2146" d="m29.706 70.633s4.033 3.457 8.643 2.016c1.435-0.448-2.305 9.075-6.194 9.651-3.889 0.577-6.482 0.288-6.77-2.304-0.415-2.081 0.72-6.915 4.321-9.363z" fill="#000100" sodipodi:nodetypes="csscc"/>
   <path id="path9328" d="m66.833 46.978c-1.486 0.118-3.079 1.283-3.598 1.687-0.473-0.045-0.956-0.055-1.446-0.016-3.79 0.497-7.908 1.922-9.609 5.627-1.342 2.367-1.786 5.105-1.623 7.81 0.735 2.322 3.228 2.498 5.317 2.397 5.546-0.171 10.997-4.276 11.515-9.967 0.241-1.356 0.048-2.645-0.017-3.998 0.535-0.644 2.352-1.549 3.246-1.559-0.685-0.623-3.268 0.681-4.19 0.694-0.114-0.06-0.221-0.138-0.337-0.192-0.051-0.734 2.29-1.574 3.492-1.89-2.315-0.411-3.92 0.994-4.671 1.441-0.158-0.049-0.316-0.088-0.476-0.128-7e-3 -0.638 1.219-1.371 3.134-1.858-0.235-0.055-0.483-0.068-0.737-0.048z"/>
   <path id="path2148" d="m66.444 50.673c-2.71-1.985-6.109-1.183-9.513 0.231-4.703 1.954-6.007 9.35-5.762 10.942 0.576 3.745 16.741 2.856 15.275-11.173z" fill="#fff" sodipodi:nodetypes="cssc"/>
   <path id="path6268" d="m58.175 55.546c-2.288 0.066-4.557 0.648-6.449 2.216-0.489 1.859-0.65 3.468-0.555 4.083 0.461 2.995 11.025 3.181 14.552-4.689-0.055-0.222-0.234-0.479-0.438-0.638-2.064-0.504-4.596-1.044-7.11-0.972z" fill="#009fff" sodipodi:nodetypes="ccsccc"/>
   <path id="path7029" d="m56.787 59.78c-1.727 4e-3 -3.682 0.188-5.397 0.261-0.047 2e-3 -0.301 0.088-0.346 0.091-0.112 0.806 0.038 1.582 0.09 1.918 0.332 2.163 6.041 2.74 10.435-0.021-0.036-1.732-2.212-2.256-4.782-2.249z" sodipodi:nodetypes="cscscc"/>
   <path id="path7032" d="m55.607 51.23c-3.029 2.613-3.422 6.475-3.677 9.505-0.03 2.085 4.926 2.775 6.869 1.734 1.942-1.04 5.966-5.827 6.382-8.602-3.122 1.873-6.937 0.416-9.574-2.637z" fill="url(#linearGradient3265)" sodipodi:nodetypes="ccscc"/>
   <path id="path7800" d="m28.412 70.794c-2.266 1.943-4.394 6.869-3.191 9.505 0.412 0.904 4.509 2.22 7.7 0.832 1.943-1.179 4.163-5.827 4.371-6.799-0.902 0.07-8.325 0.07-8.88-3.538z" fill="url(#linearGradient3267)" sodipodi:nodetypes="ccccc"/>
   <path id="path10867" d="m40.22 32.083c-6.463-7.449-4.651-18.703-1.752-26.272-2.174 12.26 4.469 23.614 5.979 24.098 1.51 0.483-3.623 1.389-4.227 2.174z" fill="url(#linearGradient3269)" sodipodi:nodetypes="ccsc"/>
   <path id="path11635" d="m100.82 10.143c0.25 13.971-12.554 19.991-18.922 24.148-1.363 1.107-1.464 3.443 0.469 5.153 2.826 1.487 22.323-13.761 18.453-29.301z" fill="url(#linearGradient3271)" sodipodi:nodetypes="cccc"/>
   <path id="path15617" d="m94.718 46.411c4.935-4.482 17.852-0.844 21.302 4.823-2.81 1.474-15.27 6.699-20.096 4.823-1.345-0.523 2.679-5.895-1.206-9.646z" fill="url(#linearGradient3273)" sodipodi:nodetypes="ccsc"/>
   <path id="path1382" d="m74.769 24.103s4.718-3.898-0.923-7.898c-8.82-7.7947-30.256-0.308-23.179 15.795 2.461 3.487 2.666 2.718 3.897 3.077-3.385-5.077-1.026-10.667-1.026-10.667s-1.23 7.846 6.975 7.59c-5.026-3.333-3.487-9.641-3.487-9.641s-0.616 4.718 2.461 5.333c-0.308-2.359-0.333-5.41 3.692-6.359 2.795-0.743 6.77 8.205 11.59 2.77z" fill="#fff" sodipodi:nodetypes="cccccccccc"/>
   <path id="path3232" d="m74.769 24.103s4.718-3.898-0.923-7.898c-8.82-7.7947-30.256-0.308-23.179 15.795 2.461 3.487 2.666 2.718 3.897 3.077-3.385-5.077-1.026-10.667-1.026-10.667s-1.23 7.846 6.975 7.59c-5.026-3.333-3.487-9.641-3.487-9.641s-0.616 4.718 2.461 5.333c-0.308-2.359-0.333-5.41 3.692-6.359 2.795-0.743 6.77 8.205 11.59 2.77z" fill="url(#linearGradient3275)" sodipodi:nodetypes="cccccccccc"/>
  </g>
 </g>
 <metadata>
  <rdf:RDF>
   <cc:Work>
    <dc:format>image/svg+xml</dc:format>
    <dc:type rdf:resource="http://purl.org/dc/dcmitype/StillImage"/>
    <cc:license rdf:resource="http://creativecommons.org/licenses/publicdomain/"/>
    <dc:publisher>
     <cc:Agent rdf:about="http://openclipart.org/">
      <dc:title>Openclipart</dc:title>
     </cc:Agent>
    </dc:publisher>
    <dc:title>Goat head</dc:title>
    <dc:date>2008-02-19T12:13:30</dc:date>
    <dc:description>A funny goat head</dc:description>
    <dc:source>https://openclipart.org/detail/14511/goat-head-by-nicubunu</dc:source>
    <dc:creator>
     <cc:Agent>
      <dc:title>nicubunu</dc:title>
     </cc:Agent>
    </dc:creator>
    <dc:subject>
     <rdf:Bag>
      <rdf:li>animal</rdf:li>
      <rdf:li>funny</rdf:li>
      <rdf:li>mammal</rdf:li>
     </rdf:Bag>
    </dc:subject>
   </cc:Work>
   <cc:License rdf:about="http://creativecommons.org/licenses/publicdomain/">
    <cc:permits rdf:resource="http://creativecommons.org/ns#Reproduction"/>
    <cc:permits rdf:resource="http://creativecommons.org/ns#Distribution"/>
    <cc:permits rdf:resource="http://creativecommons.org/ns#DerivativeWorks"/>
   </cc:License>
  </rdf:RDF>
 </metadata>
</svg>
