<?xml version="1.0" encoding="UTF-8"?>
<!-- Created with Inkscape (http://www.inkscape.org/) -->
<svg id="svg863" width="91mm" height="80.537mm" version="1.1" viewBox="0 0 91 80.537" xmlns="http://www.w3.org/2000/svg" xmlns:cc="http://creativecommons.org/ns#" xmlns:dc="http://purl.org/dc/elements/1.1/" xmlns:rdf="http://www.w3.org/1999/02/22-rdf-syntax-ns#">
 <metadata id="metadata860">
  <rdf:RDF>
   <cc:Work rdf:about="">
    <dc:format>image/svg+xml</dc:format>
    <dc:type rdf:resource="http://purl.org/dc/dcmitype/StillImage"/>
    <dc:title/>
   </cc:Work>
  </rdf:RDF>
 </metadata>
 <g id="layer1" transform="translate(0 -216.46)">
  <path id="path814" d="m84.55 290.55-39.05-67.637-39.05 67.637z" fill="none" stroke="#dc0a14" stroke-linejoin="round" stroke-width="11.9"/>
  <path id="path818" d="m81.173 288.6-35.673-61.788-35.673 61.787z" fill="#fff"/>
  <path id="path3034" d="m44.442 248.3c-0.46375-0.01-0.92449 1.0302-1.0656 1.3131-0.36665 0.73545-0.10382 0.5124-0.62012 0.80874-0.54163 0.31119-0.18592 0.13956-1.1183 0.41134-0.43919 0.12573-1.1434 0.45706-1.095-0.22375 0.0213-0.30685 0.5952-1.109 0.3452-1.2583-0.475-0.28057-0.96349 0.78686-1.0769 1.0418-0.29251 0.6655-0.29777 1.3074-0.78497 1.8774-0.72573 0.84267-1.8804 1.7127-3.0448 1.8702-0.96453 0.12991-1.7052 0.60547-2.6634 0.80925-0.81542 0.17153-1.4227 0.20329-1.4252 1.0831-4e-3 0.45935 0.18547 1.1913 0.69918 1.341 0.55477 0.15633 0.98231-0.0404 1.5084 0.23875 0.49228 0.25627 1.0913 0.24604 1.5291 0.56172 0.36934 0.25928 0.20349 0.0686 0.29301 0.68471 0.18524 1.2463 1.0232 2.3142 1.1116 3.5729 0.12724 1.8754-0.29082 3.706 0.0424 5.5733 0.18677 1.0368 0.0357 0.6664 0.26304 1.1586 0.20127 0.42795-0.57761 0.22275-0.83716 0.19585-1.1663-0.12101-0.43521-0.0195-2.1756-0.42633-1.1737-0.27697-3.8015-1.1858-4.2008 0.56069-0.1746 0.75631 0.57223 1.3077 1.0997 1.7746 1.2322 1.0842 1.8353 2.0006 2.7202 3.4081 0.79391 1.2606 0.67315 1.88 1.9234 1.987 0.94541 0.0768 1.0641 0.3323 1.7053 1.0909 0.62574 0.7416 0.56278 0.7678 1.2439 1.0997 0.30084-0.60466-0.0931-1.255 0.0129-1.9265 0.086-0.54272 0.20878-0.3682-0.15761-0.61288-0.45386-0.3048-0.99672-0.0998-1.3343-0.53072-0.25414-0.3227-0.32261-0.6666-0.44442-1.0459-0.44075-0.0699-0.64076-0.10142-1.0325-0.33279-0.78689-0.47138-1.4076-1.5357-1.7394-2.3451-0.19477-0.46899-0.25942-0.29212-0.0568-0.56069 0.31027-0.40701 1.5584 0.29197 1.88 0.44855 1.0919 0.5286 2.1305 0.76593 3.3311 1.0154 1.4647 0.30485 0.89118 0.32841 1.7131 0.23512 0.82589-0.0925 0.24701-0.0611 1.7312 0.21033 1.6044 0.29056 1.321 0.14918 2.9244 0.15761 1.5754 0.0126 0.89912 0.11174 2.0454-0.16382 1.2981-0.3092 0.47904-0.22953 2.4681 0.27596 1.9684 0.49898 1.1503 0.42456 2.42 0.4656 1.0754 0.0337 0.51262-0.12837 1.5281 0.82993 0.97478 0.92486 2.0748 1.6685 3.3982 2.0877 1.2212 0.38045 0.42262 0.15454 2.4226 0.56638 1.4968 0.30627 1.912 0.21548 2.7828 1.1658 0.58341 0.63508 1.3668 0.75467 1.9064 1.4097 0.71531 0.86579 1.2265 1.7214 1.4924 2.7761 0.20612 0.82991 0.53498 1.2878 1.4196 1.4872 0.74355 0.16873 0.82863 0.29551 1.2919 0.91157 0.31388 0.40538 0.72888 0.94939 1.3493 0.91984 0.42255-0.0197 0.14916-0.50911 0.0615-0.73277-0.23976-0.61744-0.21164-0.30267-0.0889-0.93535 0.11165-0.56123 0.21119-0.35395-0.094-0.67127-0.45285-0.48218-1.1916-0.18836-1.7167-0.64544-0.71137-0.60471-0.22456-0.14146-1.1271-1.6376-0.79959-1.3396-1.3822-2.5847-1.7203-4.0747-0.22249-0.98381-0.0666-0.95914-1.0185-1.1369-1.0717-0.20068-2.5348-0.8942-3.0205-1.8604-0.36122-0.70881-0.18465-0.24307-0.28009-1.4526-0.12424-1.5741-0.0129-0.72245-0.37982-2.5497-0.18119-0.91675-0.15572-1.1154-0.18811-1.2573 0.61823-0.27881 1.355-0.3526 1.9668-0.66765 0.46559-0.3485 0.62363-0.9292 0.59996-1.4743-0.0505-0.67545-0.33428-1.184-0.90485-1.5823-0.14894-0.0502-0.21201 0.13624-0.24392 0.22066 0.0874 0.87285 0.117 1.8429-0.61236 2.4593-0.33088 0.24154-0.76262 0.33998-1.1591 0.47233-0.49267-0.52011-1.7239-0.76545-2.3291-0.94568-1.2306-0.37336-0.75612-0.11961-1.5079-0.61288-0.73113-0.47567-1.3116-0.72292-2.1999-0.6997-1.1858 0.0309-2.3246 0.45743-3.5057 0.40256-0.94604-0.0442-0.30412 0.021-1.8836-0.39843-1.7897-0.47486-0.96159-0.20371-2.5342-0.55294v5.2e-4c-0.73129-0.16135-1.4137-0.48279-2.0981-0.76946-0.45756-0.19086-0.68005-0.30833-0.98341-0.69402-0.69125-0.87542-0.19814-0.22267-1.2904-2.0732-1.14-1.9268-0.84366-1.0914-1.2072-2.3937-0.33947-1.2254-0.30544-2.5054-0.38447-3.7626 0.65158-0.17039 1.2182-0.35407 1.7549-0.74776 0.52996-0.38133 0.22255-0.65781-0.27492-0.91415-0.61422-0.32127-1.2636-0.36911-1.9456-0.49506 0.16948-0.63898 0.19273-1.2513 0.6966-1.7224 0.63794-0.60166 0.18106-0.2494 1.5777-0.77618 1.3233-0.49676 0.81572-0.39979 1.4661-0.50643 0.37477-0.0639 0.7413 0.12624 1.0981 0.23306 0.17808-0.54609-0.14477-1.0714-0.65267-1.3751 0.10743-0.39319 0.19594-0.68962 0.41186-1.047 0.0802-0.13313 0.40663-0.61068-0.0109-0.62219z"/>
 </g>
</svg>
