<?xml version="1.0" encoding="UTF-8"?>
<!-- Created with Inkscape (http://www.inkscape.org/) -->
<svg id="svg825" width="61.4mm" height="61.4mm" version="1.1" viewBox="0 0 61.4 61.4" xmlns="http://www.w3.org/2000/svg" xmlns:cc="http://creativecommons.org/ns#" xmlns:dc="http://purl.org/dc/elements/1.1/" xmlns:rdf="http://www.w3.org/1999/02/22-rdf-syntax-ns#">
 <metadata id="metadata822">
  <rdf:RDF>
   <cc:Work rdf:about="">
    <dc:format>image/svg+xml</dc:format>
    <dc:type rdf:resource="http://purl.org/dc/dcmitype/StillImage"/>
    <dc:title/>
   </cc:Work>
  </rdf:RDF>
 </metadata>
 <g id="layer1" transform="translate(232.83 -324.05)">
  <rect id="rect1373" x="-232.33" y="324.55" width="60.4" height="60.4" rx="3.8" ry="3.8" style="paint-order:stroke fill markers"/>
  <rect id="rect1375" x="-232.13" y="324.75" width="60" height="60" rx="3.6" ry="3.6" fill="#fff" style="paint-order:stroke fill markers"/>
  <rect id="rect1385" x="-230.63" y="326.25" width="57" height="57" rx="2.1" ry="2.1" fill="#006e3c" style="paint-order:stroke fill markers"/>
  <path id="path934" d="m-228.13 379.75h16v-50h-16z" fill="#fff"/>
  <path id="path3833" d="m-187.9 368.66c-1.1477-0.10658-2.1107-0.9104-2.4211-2.0209l-1.7476-6.4927-3.92 6.84-2.1639 10.12c-0.48051 1.2785-1.8885 1.9441-3.181 1.5047-1.2926-0.43966-2.0028-1.8261-1.6052-3.1326l2.5604-10.682 4.8897-9.6-3.07-5.73-4.1066 4.4235c-0.44443 0.47878-1.077 0.73777-1.7298 0.70749l-4.0373-0.18596c-1.0558-0.15569-1.8515-1.0414-1.8946-2.1081-0.0433-1.0667 0.67784-2.0137 1.7177-2.2547l3.2745 0.38754c0.2741 0.0325 0.54598-0.075 0.7238-0.28644l5.9813-7.1114c0.15591-0.18515 0.38535-0.29195 0.62753-0.29195h13.91c0.14202 0 0.27297 0.0764 0.3429 0.20004l4.22 7.4756c-6e-3 0.97728-0.58759 1.8591-1.4837 2.2482-0.89552 0.3894-1.9367 0.21316-2.6547-0.44937l-2.5111-5.1245-4.11 0.10019 0.74 1.4298 2.15 5.19 0.62 3.27 0.87 7.42 7.6951 0.29334c1.1926 0.0804 2.1112 1.0855 2.0843 2.2813-0.0269 1.196-0.98875 2.1586-2.1839 2.1858z" fill="#fff"/>
  <circle id="path1700" cx="-198.43" cy="338.45" r="3.7" fill="#fff" style="paint-order:stroke fill markers"/>
 </g>
</svg>
