<?xml version="1.0" encoding="UTF-8"?>
<!-- Created with Inkscape (http://www.inkscape.org/) -->
<svg id="svg833" width="69mm" height="26mm" version="1.1" viewBox="0 0 69 26" xmlns="http://www.w3.org/2000/svg" xmlns:cc="http://creativecommons.org/ns#" xmlns:dc="http://purl.org/dc/elements/1.1/" xmlns:rdf="http://www.w3.org/1999/02/22-rdf-syntax-ns#">
 <metadata id="metadata830">
  <rdf:RDF>
   <cc:Work rdf:about="">
    <dc:format>image/svg+xml</dc:format>
    <dc:type rdf:resource="http://purl.org/dc/dcmitype/StillImage"/>
    <dc:title/>
   </cc:Work>
  </rdf:RDF>
 </metadata>
 <g id="layer1" transform="translate(0,-271)">
  <rect id="rect922" x=".5" y="271.5" width="68" height="25" rx="3" ry="3" style="paint-order:stroke fill markers"/>
  <rect id="rect924" x="2" y="273" width="65" height="22" rx="1.5" ry="1.5" fill="#fad20a" style="paint-order:stroke fill markers"/>
  <path id="path91" d="m29.275 287.06v-6.1106c0-2.4554-1.7984-3.9444-3.9839-3.9444-2.1845 0-3.9638 1.489-3.9638 3.9444v6.1106c0 2.4559 1.7793 3.945 3.9638 3.945 2.1856 0 3.9839-1.489 3.9839-3.945zm-1.9725-0.058c0 1.3343-0.75396 2.2435-2.0114 2.2435-1.2564 0-1.9908-0.9092-1.9908-2.2435v-5.9943c0-1.3342 0.73442-2.2429 1.9908-2.2429 1.2575 0 2.0114 0.90868 2.0114 2.2429z"/>
  <path id="path93" d="m38.798 287.06v-6.1106c0-2.4554-1.7984-3.9444-3.9829-3.9444-2.1856 0-3.964 1.489-3.964 3.9444v6.1106c0 2.4559 1.7784 3.945 3.964 3.945 2.1845 0 3.9829-1.489 3.9829-3.945zm-1.972-0.058c0 1.3343-0.75448 2.2435-2.0109 2.2435-1.2575 0-1.992-0.9092-1.992-2.2435v-5.9943c0-1.3342 0.73455-2.2429 1.992-2.2429 1.2564 0 2.0109 0.90868 2.0109 2.2429z"/>
  <path id="path95" d="m56.7 291v-6.2657c0-1.1018-0.29044-2.0299-1.0444-2.7648-0.58035-0.56095-1.4695-0.88967-2.4749-0.88967-1.2959 0-2.2818 0.46457-3.0747 1.4311-0.61877-0.94763-1.5663-1.4311-2.7848-1.4311-0.98604 0-1.9526 0.3872-2.6107 1.1022v-0.98605h-1.9331v9.8041h1.972v-5.9753c0-1.5084 0.92822-2.1852 2.0304-2.1852 1.1022 0 1.9725 0.65771 1.9725 2.1852v5.9753h1.972v-6.0722c0-1.4115 0.96703-2.0883 2.0308-2.0883 1.1022 0 1.9725 0.65771 1.9725 2.1852v5.9753z"/>
  <path id="path97" d="m12.3 290.88h7.7854v-1.9561h-5.2157l4.391-5.5031c0.54954-0.67765 0.82463-1.4767 0.82463-2.3971 0-0.53682-0.10241-1.0418-0.30683-1.5146-0.1921-0.47321-0.47322-0.88861-0.84364-1.2467-0.35797-0.37083-0.78005-0.65195-1.2656-0.84351-0.48607-0.20443-1.01-0.30684-1.5724-0.30684-0.49892 0-0.97831 0.10241-1.4383 0.30684-0.4605 0.19156-0.86922 0.46653-1.2272 0.82462-0.34525 0.35797-0.61982 0.77952-0.82463 1.2656-0.20442 0.47284-0.30683 0.98395-0.30683 1.534h1.9561c0.05127-0.6008 0.26172-1.0802 0.63254-1.4382 0.37082-0.35809 0.82463-0.53682 1.3614-0.53682 0.56239 0 1.0162 0.19774 1.3614 0.59412 0.34525 0.38366 0.5178 0.83079 0.5178 1.3424 0 0.22999-0.03842 0.45381-0.11473 0.67108-0.06398 0.21714-0.1921 0.44765-0.38366 0.69037l-5.3309 6.673z"/>
 </g>
</svg>
