<?xml version="1.0" encoding="UTF-8"?>
<!-- Created with Inkscape (http://www.inkscape.org/) -->
<svg id="svg833" width="61mm" height="61mm" version="1.1" viewBox="0 0 61 61" xmlns="http://www.w3.org/2000/svg" xmlns:cc="http://creativecommons.org/ns#" xmlns:dc="http://purl.org/dc/elements/1.1/" xmlns:rdf="http://www.w3.org/1999/02/22-rdf-syntax-ns#">
 <metadata id="metadata830">
  <rdf:RDF>
   <cc:Work rdf:about="">
    <dc:format>image/svg+xml</dc:format>
    <dc:type rdf:resource="http://purl.org/dc/dcmitype/StillImage"/>
    <dc:title/>
   </cc:Work>
  </rdf:RDF>
 </metadata>
 <g id="layer1" transform="translate(0,-236)">
  <circle id="path17" cx="30.5" cy="266.5" r="30" fill="#dc0a14" style="paint-order:stroke fill markers"/>
  <circle id="circle1748" cx="30.5" cy="266.5" r="24" fill="#fff" style="paint-order:stroke fill markers"/>
  <path id="path11" class="fil2" d="m24.595 253.87v25.255h-3.606v-19.28h-2.1093v-2.1472l2.1093-3.827h3.606zm4.5343 19.06v-12.845c0-1.3451 0.33469-2.5261 0.99778-3.5492 0.60628-0.92834 1.4273-1.6672 2.463-2.223 0.99784-0.54311 2.0399-0.81464 3.1261-0.81464 1.6167 0 3.0376 0.53677 4.2565 1.6104 1.4336 1.2694 2.1472 2.9303 2.1472 4.9764v12.845c0 1.5283-0.42314 2.8608-1.2757 3.9976-1.282 1.7114-3.0313 2.5703-5.2354 2.5703-1.9767 0-3.6123-0.73259-4.907-2.204-1.0483-1.1936-1.5725-2.6524-1.5725-4.3638zm9.3845 0v-13.23c0-0.77678-0.28416-1.4778-0.85257-2.0904-0.51782-0.56841-1.1809-0.85256-1.983-0.85256-1.0736 0-1.9072 0.44204-2.5008 1.3325-0.29682 0.44204-0.4421 0.97888-0.4421 1.6104v13.597c0 0.64414 0.20843 1.2315 0.63152 1.7746 0.58103 0.77673 1.3452 1.1683 2.2925 1.1683 1.0294 0 1.8125-0.43576 2.3556-1.3136 0.33469-0.51787 0.49887-1.1873 0.49887-1.9956z" clip-rule="evenodd" image-rendering="optimizeQuality" shape-rendering="geometricPrecision"/>
 </g>
</svg>
