<?xml version="1.0" encoding="UTF-8"?>
<!-- Created with Inkscape (http://www.inkscape.org/) -->
<svg id="svg863" width="91mm" height="80.537mm" version="1.1" viewBox="0 0 91 80.537" xmlns="http://www.w3.org/2000/svg" xmlns:cc="http://creativecommons.org/ns#" xmlns:dc="http://purl.org/dc/elements/1.1/" xmlns:rdf="http://www.w3.org/1999/02/22-rdf-syntax-ns#">
 <metadata id="metadata860">
  <rdf:RDF>
   <cc:Work rdf:about="">
    <dc:format>image/svg+xml</dc:format>
    <dc:type rdf:resource="http://purl.org/dc/dcmitype/StillImage"/>
    <dc:title/>
   </cc:Work>
  </rdf:RDF>
 </metadata>
 <g id="layer1" transform="translate(-14.696 -205.46)">
  <path id="path814" d="m99.247 279.55-39.05-67.637-39.05 67.637z" fill="none" stroke="#dc0a14" stroke-linejoin="round" stroke-width="11.9"/>
  <path id="path818" d="m95.869 277.6-35.673-61.788-35.673 61.787z" fill="#fff"/>
  <path id="path5048" d="m58.851 241.88c-2.1748-0.99847-4.0081-0.99815-6.7167 2.076-2.7822-0.19171-5.1164 2.1454-6.3378 4.1504l26.283 12.256 1.8173-3.8971c0.6725-1.4564 0.18778-2.1003-0.60486-2.4888l-5.4379-2.5357-0.67793-4.509c-0.098-0.62794-0.40922-1.3564-1.2559-1.7553zm2.3845 2.4582-1.5383 3.2989-5.5285-2.5779 1.691-1.97c0.59428-0.71448 1.1078-0.70369 2.2944-0.18798zm0.99692 0.46486 3.6252 1.6905 0.63683 4.3132-5.8004-2.7048z"/>
  <circle id="circle5050" transform="rotate(25)" cx="152.86" cy="205.5" r="3.4" fill="#fff" style="paint-order:stroke fill markers"/>
  <circle id="circle5052" transform="rotate(25)" cx="152.86" cy="205.5" r="2.7" style="paint-order:stroke fill markers"/>
  <circle id="circle5054" transform="rotate(25)" cx="152.86" cy="205.5" r="1.05" fill="#fff" style="paint-order:stroke fill markers"/>
  <circle id="circle5056" transform="rotate(25)" cx="170.96" cy="205.5" r="3.4" fill="#fff" style="paint-order:stroke fill markers"/>
  <circle id="circle5058" transform="rotate(25)" cx="170.96" cy="205.5" r="2.7" style="paint-order:stroke fill markers"/>
  <circle id="circle5060" transform="rotate(25)" cx="170.96" cy="205.5" r="1.05" fill="#fff" style="paint-order:stroke fill markers"/>
  <path id="path2101" d="m41.093 255.1-11.201 19.4h18.4v-1.3c1.6721 0.0738 1.7477 1.3 3.9501 1.3s2.2775-1.2256 3.9496-1.2997c1.6721 0.0738 1.7477 1.2997 3.9501 1.2997 2.2022 1e-5 2.2785-1.226 3.9501-1.3 1.6717 0.074 1.7479 1.3 3.9501 1.3 2.2024 1e-5 2.278-1.2258 3.9501-1.2997 1.6721 0.074 1.7472 1.2997 3.9496 1.2997 2.2022 1e-5 2.278-1.226 3.9496-1.3 1.6716 0.074 1.7482 1.3 3.9505 1.3 2.2024 0 2.2767-1.2256 3.9488-1.2997 1.2311 0.0543 1.5992 0.73193 2.5854 1.0862l-1.2532-2.1704c-0.34301-0.12861-0.76352-0.21601-1.3322-0.21601-2.2024 0-2.201 1.3002-3.9488 1.3002-1.7476 0-1.7486-1.3-3.9505-1.3002-2.2019 2.1e-4 -2.202 1.3002-3.9496 1.3002-1.7478 1e-5 -1.7472-1.3002-3.9496-1.3002s-2.2024 1.3002-3.9501 1.3002c-1.7476 0-1.7482-1.3-3.9501-1.3002-2.202 1.7e-4 -2.2025 1.3002-3.9501 1.3002-1.7477 0-1.7477-1.3002-3.9501-1.3002-2.2025 0-2.2019 1.3002-3.9496 1.3002-1.7478 0-1.7477-1.3002-3.9501-1.3002v-1.3002c1.6721 0.0738 1.7477 1.2996 3.9501 1.2996s2.2775-1.2256 3.9496-1.2997c1.6721 0.0738 1.7477 1.2997 3.9501 1.2997 2.2022 2e-5 2.2784-1.2257 3.9501-1.2996 1.6717 0.074 1.7479 1.2996 3.9501 1.2996 2.2024 2e-5 2.278-1.2258 3.9501-1.2997 1.6721 0.074 1.7472 1.2997 3.9496 1.2997 2.2022 0 2.278-1.2256 3.9496-1.2996 1.6716 0.074 1.7482 1.2996 3.9505 1.2996 2.2024 0 2.2767-1.2256 3.9488-1.2997 0.183 8e-3 0.34439 0.032 0.49402 0.0646l-0.78135-1.3539c-1.9142 0.10943-1.9946 1.2893-3.6615 1.2893-1.7476 0-1.7486-1.3-3.9505-1.3002-2.2019 2.2e-4 -2.202 1.3002-3.9496 1.3002-1.7477 0-1.7472-1.3002-3.9496-1.3002s-2.2024 1.3002-3.9501 1.3002c-1.7476 0-1.7482-1.3-3.9501-1.3002-2.202 1.8e-4 -2.2025 1.3002-3.9501 1.3002-1.7477 0-1.7477-1.3002-3.9501-1.3002-2.2025 0-2.2019 1.3002-3.9496 1.3002-1.7478 0-1.7477-1.3002-3.9501-1.3002v-1.2998c1.6721 0.0738 1.7477 1.2998 3.9501 1.2998s2.2775-1.2256 3.9496-1.2997c1.6721 0.0738 1.7477 1.2997 3.9501 1.2997 2.2022 1e-5 2.2785-1.2258 3.9501-1.2998 1.6717 0.074 1.7479 1.2998 3.9501 1.2998 2.2025 1e-5 2.278-1.2258 3.9501-1.2997 1.6721 0.074 1.7472 1.2997 3.9496 1.2997 2.2022 0 2.278-1.2258 3.9496-1.2998 1.6716 0.074 1.7482 1.2998 3.9505 1.2998 1.7057 0 2.1368-0.73318 3.0207-1.0992l-0.67438-1.1674c-0.78849 0.38524-1.1762 0.96691-2.3463 0.96687-1.7476 0-1.7486-1.3-3.9505-1.3002-2.2019 2.2e-4 -2.202 1.3002-3.9496 1.3002-1.7477 0-1.7472-1.3002-3.9496-1.3002s-2.2024 1.3002-3.9501 1.3002c-1.7476 0-1.7482-1.3-3.9501-1.3002-2.202 1.8e-4 -2.2025 1.3002-3.9501 1.3002-1.7477 0-1.7477-1.3002-3.9501-1.3002-2.2025 0-2.2019 1.3001-3.9496 1.3002-1.7477 0-1.7477-1.3002-3.9501-1.3002v-1.3c1.6721 0.0738 1.7477 1.3 3.9501 1.3s2.2775-1.2262 3.9496-1.3002c1.6721 0.0738 1.7477 1.2997 3.9501 1.2997 2.2022 0 2.2785-1.2254 3.9501-1.2994 1.6717 0.074 1.7479 1.3 3.9501 1.3 2.2024 0 2.278-1.2264 3.9501-1.3002 1.6721 0.074 1.7472 1.3002 3.9496 1.3002 2.2022 0 2.278-1.2259 3.9496-1.3 1.6716 0.074 1.7482 1.2994 3.9505 1.2994 0.90439 0 1.4446-0.2086 1.8895-0.45733l-0.65629-1.1374c-0.32242 0.17115-0.69399 0.29509-1.2332 0.29507-1.7476 0-1.7486-1.3-3.9505-1.3002-2.2019 2.2e-4 -2.202 1.3002-3.9496 1.3002-1.7477 0-1.7472-1.3002-3.9496-1.3002s-2.2024 1.3002-3.9501 1.3002c-1.7476 0-1.7482-1.3-3.9501-1.3002-2.202 1.8e-4 -2.2025 1.3002-3.9501 1.3002-1.7477 0-1.7477-1.3002-3.9501-1.3002s-2.2019 1.3001-3.9496 1.3002c-1.7477 0-1.7477-1.3002-3.9501-1.3002v-9z" clip-rule="evenodd"/>
 </g>
</svg>
