<?xml version="1.0" encoding="UTF-8"?>
<!-- Created with Inkscape (http://www.inkscape.org/) -->
<svg id="svg863" width="91mm" height="80.537mm" version="1.1" viewBox="0 0 91 80.537" xmlns="http://www.w3.org/2000/svg" xmlns:cc="http://creativecommons.org/ns#" xmlns:dc="http://purl.org/dc/elements/1.1/" xmlns:rdf="http://www.w3.org/1999/02/22-rdf-syntax-ns#">
 <metadata id="metadata860">
  <rdf:RDF>
   <cc:Work rdf:about="">
    <dc:format>image/svg+xml</dc:format>
    <dc:type rdf:resource="http://purl.org/dc/dcmitype/StillImage"/>
    <dc:title/>
   </cc:Work>
  </rdf:RDF>
 </metadata>
 <g id="layer1" transform="translate(-12.965 -206.46)">
  <path id="path814" d="m97.515 280.55-39.05-67.637-39.05 67.637z" fill="none" stroke="#dc0a14" stroke-linejoin="round" stroke-width="11.9"/>
  <path id="path818" d="m94.138 278.6-35.673-61.788-35.673 61.787z" fill="#fff"/>
  <path id="path1962" d="m63.942 230.5 26.558 46-59.07-2e-4v-1.1h19.27v-1.5l2.7-4.5-0.9-5.1 2.8-1.8 0.6-2.7 1.2-1.6 2.5-1 0.9-1.6-2.1-4.5 0.9-1.5-0.1-2-1.9-2-0.8-2.7 0.2-3 3.9-1.7v-2.4l2.4-1.4v-1.7z"/>
  <path id="path1964" d="m60.6 232.3 0.4 0.8-0.2 0.1-0.2 0.8-0.8-0.3-1 0.3-0.2-0.2 0.1-0.4-0.3-0.6 0.8-0.7 0.4-0.7 1-0.6 0.3-0.1"/>
  <path id="path1966" d="m54.3 244.8 0.2 0.4 1 0.7 0.2 1.9-1 0.7 0.2 0.8-1.3 0.8v0.2l-1.1-0.2-1.3-1v-1.2l1.6-1.5-0.3-0.6 0.1-0.2"/>
  <path id="path1968" d="m53.3 253.6 0.6 0.2 0.2 0.6h0.2v0.9l-0.2 0.5h-0.4l-1 0.4-0.4-0.4-0.55601-0.18998-0.34399-1.71h1.1"/>
  <path id="path1970" d="m48.5 256.2 1.7 0.2v1.6l1.6 1.4v1.1l-0.8 1.6-1.7 0.6-2.6-0.4-0.8-1.8-1.4-1.3 1.8-1.4 0.4-1"/>
  <path id="path1972" d="m43.5 271.2 1-3.2 2.4-1.3 0.9 0.6 1.8-0.6 0.6 2.4-2.2 2.3-1.4-0.6-0.9 1.2"/>
  <path id="path1974" d="m41 265.5 0.5 0.5 0.3 1.5-0.6 0.4-2.2-0.9-0.5-1.2 1.5 0.1"/>
  <path id="path2006" d="m54.3 236.9 1 0.5-0.2 1.1-0.5 0.2 0.2 0.6h-0.7l-0.6-0.2-1.3-1.5-0.1-0.3-0.2-0.2"/>
 </g>
</svg>
