<?xml version="1.0" encoding="UTF-8"?>
<!-- Created with Inkscape (http://www.inkscape.org/) -->
<svg id="svg825" width="61.4mm" height="81.4mm" version="1.1" viewBox="0 0 61.4 81.4" xmlns="http://www.w3.org/2000/svg" xmlns:cc="http://creativecommons.org/ns#" xmlns:dc="http://purl.org/dc/elements/1.1/" xmlns:rdf="http://www.w3.org/1999/02/22-rdf-syntax-ns#">
 <metadata id="metadata822">
  <rdf:RDF>
   <cc:Work rdf:about="">
    <dc:format>image/svg+xml</dc:format>
    <dc:type rdf:resource="http://purl.org/dc/dcmitype/StillImage"/>
    <dc:title/>
   </cc:Work>
  </rdf:RDF>
 </metadata>
 <g id="layer1" transform="translate(232.83 -304.05)">
  <rect id="rect1373" x="-232.33" y="304.55" width="60.4" height="80.4" rx="3.8" ry="3.8" style="paint-order:stroke fill markers"/>
  <rect id="rect1375" x="-232.13" y="304.75" width="60" height="80" rx="3.6" ry="3.6" fill="#fff" style="paint-order:stroke fill markers"/>
  <rect id="rect1385" x="-230.63" y="306.25" width="57" height="77" rx="2.1" ry="2.1" fill="#003c82" style="paint-order:stroke fill markers"/>
  <rect id="rect860" x="-222.13" y="324.75" width="40" height="40" fill="#fff" style="paint-order:stroke fill markers"/>
  <path id="path25569" d="m-185.03 348.53c-0.60915 3.4332-3.8886 5.7243-7.3211 5.1133-3.0152-0.53697-5.2107-3.1568-5.2107-6.2174v-5.3688c0-3.4872 2.8258-6.3152 6.3146-6.3152 3.0605 0 5.6827 2.1962 6.2172 5.2088h-2.7594c-0.6093-1.9087-2.653-2.963-4.5617-2.3538-1.5054 0.48237-2.5265 1.8799-2.5265 3.4602v5.3688c0 2.0045 1.6261 3.6306 3.6304 3.6306 1.5803 0 2.9797-1.0212 3.4578-2.5265zm-29.979 5.0526-4.4205-17.683h2.8422l2.8429 12.63 3.4724-12.63h1.894l3.4724 12.63 2.8428-12.63h2.8424l-4.4207 17.683h-2.3685l-3.3142-12.787-3.3168 12.787z"/>
 </g>
</svg>
