<?xml version="1.0" encoding="UTF-8"?>
<!-- Created with Inkscape (http://www.inkscape.org/) -->
<svg id="svg863" width="91mm" height="80.537mm" version="1.1" viewBox="0 0 91 80.537" xmlns="http://www.w3.org/2000/svg" xmlns:cc="http://creativecommons.org/ns#" xmlns:dc="http://purl.org/dc/elements/1.1/" xmlns:rdf="http://www.w3.org/1999/02/22-rdf-syntax-ns#">
 <metadata id="metadata860">
  <rdf:RDF>
   <cc:Work rdf:about="">
    <dc:format>image/svg+xml</dc:format>
    <dc:type rdf:resource="http://purl.org/dc/dcmitype/StillImage"/>
    <dc:title/>
   </cc:Work>
  </rdf:RDF>
 </metadata>
 <g id="layer1" transform="translate(0 -216.46)">
  <path id="path814" d="m84.55 290.55-39.05-67.637-39.05 67.637z" fill="none" stroke="#dc0a14" stroke-linejoin="round" stroke-width="11.9"/>
  <path id="path818" d="m81.173 288.6-35.673-61.788-35.673 61.787z" fill="#fff"/>
  <path id="path6" d="m23.4 285.5h46.2l-0.11858-0.45372c-0.164-0.62604-0.34901-1.2467-0.55469-1.8603-0.17459-0.5203-0.40641-1.0198-0.69138-1.4891-0.17784-0.29328-0.36012-0.58341-0.54684-0.87109-0.03191-0.049-0.07536-0.0898-0.12641-0.1185l-0.11087-0.19838-0.42044-0.90953c-0.10727-0.23191-0.23421-0.45458-0.37925-0.66485-0.12641-0.18332-0.26149-0.36038-0.4051-0.53078-0.28463-0.33784-0.54144-0.69806-0.76866-1.077-0.22918-0.3824-0.50016-0.7386-0.80734-1.0616-0.12997-0.13631-0.2764-0.25586-0.43611-0.3555-0.18421-0.11517-0.33466-0.277-0.43594-0.4689-0.23162-0.43974-0.51276-0.85099-0.8383-1.2266-0.44223-0.51037-1.1366-0.72534-1.7903-0.55388-0.33186 0.0868-0.65356 0.20852-0.9597 0.36321-0.55402 0.27981-1.0708 0.62865-1.5373 1.0383l-0.32503-0.15694c-1.3778-0.66642-2.7148-1.4141-4.0036-2.2394l-0.60354 0.21409-0.6964-0.58759-0.38189-0.41737-0.72734-0.53079c-0.88761-0.64755-1.8416-1.1997-2.8453-1.6464l-0.58568-0.5231-0.92856-0.88122c-0.10006-0.0953-0.17319-0.21533-0.21149-0.34797-0.10216-0.35376-0.16602-0.71748-0.19103-1.0848-0.03306-0.49252-0.05984-0.98538-0.07996-1.479-0.01587-0.39185-0.04778-0.78299-0.09533-1.1724-0.0735-0.59895-0.1027-1.2026-0.08785-1.8061 0.0053-0.20011 0.01037-0.40023 0.01552-0.60035 0.0035-0.12741 0.04184-0.25133 0.11091-0.35828l0.61911-1.3293 0.83846-1.4328c0.18788-0.32123 0.29653-0.68231 0.31717-1.0537 0.02048-0.36651-9e-3 -0.73407-0.08768-1.0925-0.03147-0.14385-0.07642-0.28455-0.13417-0.42001-0.05426-0.12725-0.03865-0.27352 0.04131-0.38661 0.0602-0.0849 0.16776-0.12319 0.26817-0.0952 0.24754 0.0688 0.51325 9e-3 0.70693-0.15973 0.42946-0.37439 0.7384-0.86744 0.88744-1.4173 0.05842-0.21512 0.12194-0.42925 0.19085-0.64141 0.04725-0.14574 0.13487-0.27544 0.25277-0.37368 0.23846-0.19871 0.40814-0.46734 0.48494-0.76778 0.08103-0.31669 0.08378-0.6484 8e-3 -0.96635-0.08821-0.36946-0.29021-0.70205-0.57782-0.95077-0.29039-0.25132-0.62802-0.44219-0.99292-0.56155-0.39064-0.12794-0.7909-0.22284-1.1971-0.28348-0.21884-0.0329-0.44224 3e-3 -0.63973 0.10293-0.2444 0.12357-0.47373 0.2751-0.68365 0.45093-0.21465 0.18019-0.37611 0.41527-0.46673 0.68022-0.08662 0.25221-0.16059 0.50842-0.222 0.76798-0.03918 0.16551-0.07367 0.33207-0.10321 0.49968-0.06472 0.36649-0.19663 0.71762-0.38941 1.0361-0.09289 0.15293-0.18561 0.30587-0.27866 0.45862-0.11424 0.18736-0.29459 0.32525-0.50574 0.38642-0.21394 0.0618-0.43961 0.0708-0.65775 0.0257-0.36424-0.0751-0.73299-0.12602-1.1039-0.15189-0.30194-0.0211-0.59986-0.0794-0.88744-0.17268-0.55613-0.1807-1.1161-0.35006-1.6794-0.50772-0.34322-0.0957-0.70288-0.11779-1.055-0.0645-1.7835 0.27126-3.4998 0.87599-5.0586 1.7831-0.16042 0.0935-0.31891 0.1905-0.47461 0.29134-0.22583 0.14578-0.40286 0.35567-0.50817 0.60299-0.11721 0.27476-0.19208 0.56575-0.222 0.86305-0.07607 0.75903-0.1653 1.5167-0.26818 2.2726-0.07696 0.56627-0.32958 1.0943-0.72232 1.51-0.10496 0.11101-0.22478 0.2073-0.35598 0.28578-0.27272 0.16358-0.5033 0.38853-0.67334 0.65716-0.19435 0.30726-0.13031 0.71098 0.14975 0.94307 0.15764 0.13074 0.32504 0.24958 0.50033 0.3555 0.13313 0.0804 0.28164 0.13145 0.43594 0.14945 0.07562 9e-3 0.13452 0.0691 0.14204 0.14453l-0.14204 3.2592-0.02332 2.6824 0.04654 1.2907-0.02323 1.1079 0.06977 1.0128 0.1263 1.2108c0.09637 0.92334 0.07465 1.8549-0.06454 2.7725-0.07172 0.474-0.09779 0.95375-0.07713 1.4326l-0.02323 1.4561 0.03094 1.6797 0.04902 1.5512-0.02606 0.73702c-9e-3 0.26935-0.22777 0.48433-0.49768 0.48937l-0.11861-8e-3 -0.66564-0.54634c-0.12157-0.0998-0.17895-0.25778-0.14957-0.41228 0.02783-0.1463 0.04601-0.29433 0.05408-0.44323 0.0071-0.13057-0.03794-0.25867-0.12612-0.35533-0.07119-0.0781-0.15394-0.14507-0.24525-0.19856l-0.42038-0.18297-0.44381-0.23702c-0.39675-0.212-0.76936-0.46594-1.1119-0.75746-0.07403-0.0633-0.14799-0.12688-0.22164-0.19085-0.15361-0.13318-0.35145-0.2038-0.55472-0.19839-0.26258 7e-3 -0.51816 0.0873-0.73788 0.23194-0.18491 0.12181-0.33097 0.29449-0.42019 0.49724-0.58675 1.332-1.4772 2.5702-2.6004 3.4965h-1.2171z"/>
  <path id="path8" d="m58.25 275.63-0.28619-0.0487-0.78425-0.17007c-0.52026-0.11306-1.029-0.27422-1.5193-0.48205-0.34392-0.14558-0.68873-0.28907-1.0344-0.43028-0.43664-0.17827-0.83656-0.43606-1.1789-0.75992l-0.55979-0.46632-0.47199-0.47695-0.29931-0.255-0.35862-0.26023-0.31714-0.23194-0.41285-0.2473-0.29408-0.15451-0.31733-0.16255-0.3224-0.15974-0.3483-0.17511-0.2554-0.13651-0.24492-0.14174-0.21936-0.12899-0.48755-0.19837-0.94921 2.605-0.03626 0.10573-0.01286 0.098-0.374 1.2339-0.31209 1.2729-0.23721 0.81691-0.1653 0.5953-0.3352 1.5406-0.1032 0.48203c-0.05248 0.2454-0.17003 0.47241-0.3406 0.65697-0.06419 0.0698-0.14152 0.1264-0.22688 0.16745-0.22637 0.10819-0.47757 0.15346-0.72756 0.13127-0.14452-0.0126-0.28621 0.0462-0.37909 0.15731-0.19576 0.234-0.32258 0.51767-0.36631 0.81931-0.01011 0.0696 0.0018 0.14071 0.0336 0.20345l0.40759 0.6624 0.09008 0.12375 0.92612 0.5231c0.08235 0.0463 0.1284 0.13805 0.11599 0.23175l-0.08501 0.30656 0.3175-0.0747c0.66652-0.15677 1.3566-0.18911 2.035-0.0952 0.49769 0.0691 0.99171 0.16096 1.4807 0.2758 0.52726 0.12356 1.0659 0.19278 1.6073 0.20623 0.3658 9e-3 0.7307-0.0362 1.0834-0.13422 0.1592-0.0439 0.32013-0.0819 0.48247-0.11325 0.3163-0.0611 0.60617-0.21988 0.8278-0.45356 0.19382-0.20396 0.38994-0.40584 0.58848-0.60543l0.46412-0.67778 0.28882-0.4483 0.29687-0.43537 0.27586-0.39689 0.42562-0.65193 0.1935-0.32473 0.29406-0.59248 0.21675-0.48169 0.14711-0.28875 0.1263-0.23191c0.43033-0.78946 0.98333-1.5064 1.6379-2.1232zm-14.255 7.828-1.3906-0.93296-0.07208-0.0488-0.2554-0.0776-0.5185-0.12863-1.0034-0.59528 0.0516-0.19559c0.09341-0.35513 0.25173-0.68966 0.46672-0.98694 0.18823-0.26009 0.35287-0.53588 0.49282-0.82478 0.10477-0.21601 0.16514-0.45075 0.1779-0.69053 0.04237-0.78721 0.17108-1.5674 0.3845-2.3266 0.24509-0.87212 0.52219-1.735 0.83061-2.5868 0.13364-0.36913 0.22111-0.75347 0.26048-1.1441 0.0089-0.0865 0.01206-0.1732 0.01037-0.26025-0.0018-0.0591-0.02208-0.1162-0.05931-0.16219l-0.30965-0.27579-0.35581-0.28611-0.34322-0.29885-0.41266-0.37107-0.2631-0.273-1.1273-1.2421-0.15219-0.19051-0.06454-0.0955c-0.07137-0.10521-0.14711-0.20763-0.22706-0.30654-0.04078-0.0505-0.09061-0.0933-0.14694-0.12638l-0.4669-0.27825-0.33273-0.13912c-0.11546-0.0482-0.24841-0.0273-0.34322 0.0542-0.14363 0.12322-0.24404 0.28944-0.28619 0.47419l-0.05683 0.61818-0.07465 0.58513-0.15746 1.2006c-0.07137 0.54475-0.07403 1.096-8e-3 1.6413 0.04761 0.39029 0.0018 0.786-0.13662 1.1544-0.07314 0.19661-0.16024 0.38782-0.26047 0.57204-0.25995 0.47802-0.45763 0.98695-0.58813 1.5149-0.09079 0.36738-0.14363 0.74281-0.15744 1.121-0.0227 0.62344-0.10216 1.2436-0.23721 1.8526-0.06942 0.31267-0.1347 0.62604-0.19612 0.94048-0.01312 0.0668-0.05408 0.12479-0.11283 0.15921-0.05878 0.0345-0.12945 0.042-0.19401 0.021l-0.25802 5e-3c-0.06383 2e-3 -0.11966 0.0444-0.1368 0.10592-0.14467 0.51419-0.14834 1.0581-0.01037 1.5744 0.0649 0.24257 0.24683 0.43694 0.48509 0.51767 0.20276 0.0691 0.41182 0.11815 0.62418 0.14682 0.20152 0.0275 0.36561 0.17582 0.41268 0.37387 0.01995 0.0835 0.02935 0.16918 0.02855 0.25498-0.0018 0.18002 0.11738 0.33889 0.29144 0.38643 0.17057 0.0466 0.34497 0.0787 0.52097 0.0955 0.26398 0.025 0.52725 0.0567 0.78949 0.0955l0.8229 0.0232 0.94394-0.0388 0.77393-0.12112 0.47738-0.11604 0.7454-0.15189 0.51327-0.10069 0.61157-0.11571zm-5.8971-26.821-0.55716 0.0105-0.4823 0.0513-0.75344 0.14699c-0.04131 8e-3 -0.07607 0.036-0.09272 0.0747l-0.20381 0.44303-0.13942 0.32981-0.10041 0.27302-0.16532 0.37123-0.25015 0.52046-0.15989 0.28594-0.1781 0.43555-0.17265 0.51017-0.08767 0.3761-0.03883 0.14699c-0.02359 0.0897-0.0035 0.18508 0.05355 0.25797 0.057 0.0726 0.14519 0.11465 0.23791 0.11308 0.06312-2e-3 0.12491-0.02 0.1781-0.0544l0.36614-0.35794 0.38188-0.40199 0.21937-0.2576 0.18036-0.27318 0.1368-0.25764c0.11091-0.20902 0.20834-0.42521 0.29145-0.64684l0.49803-0.57709 0.62942-0.68793 0.51082-0.50249c0.01436-0.014 0.02155-0.0341 0.01942-0.0542-0.0018-0.0199-0.01286-0.038-0.02987-0.0489l-0.14713-0.17004c-0.0359-0.0416-0.08974-0.0627-0.14433-0.0567zm6.9959 10.116c-0.06215 0.0199-0.13033 0-0.17284-0.049-0.21325-0.24854-0.4195-0.50282-0.6191-0.76272-0.13977-0.18195-0.27237-0.3693-0.39711-0.56174-0.10617-0.1629-0.21447-0.32439-0.32519-0.48447-0.10986-0.15852-0.2115-0.32281-0.30438-0.49199-0.13629-0.24873-0.2689-0.49952-0.3973-0.75244-0.10636-0.20989-0.18298-0.43359-0.22688-0.66464-0.02501-0.13162-0.05443-0.26216-0.08767-0.39169-0.01835-0.0707-0.02802-0.14332-0.02855-0.21637-0.0018-0.11797 0.04237-0.2321 0.12122-0.31966l0.28112-0.31179 0.33799-0.27074c0.07492-0.0716 0.1786-0.10486 0.28129-0.0904 0.10269 0.0147 0.19313 0.0755 0.24508 0.16533l0.21396 0.37087c0.04876 0.10993 0.08086 0.22633 0.09551 0.34552 0.0035 0.219 0.02783 0.43729 0.07226 0.65175 0.06091 0.29399 0.12264 0.58777 0.18578 0.88121 0.1242 0.57992 0.28182 1.1519 0.47198 1.7135l0.12124 0.35812 0.16514 0.45878c0.03954 0.10244 0.0555 0.21254 0.04636 0.32194-0.0035 0.0465-0.03546 0.0864-0.07996 0.10069z" fill="#fff"/>
 </g>
</svg>
