<?xml version="1.0" encoding="UTF-8"?>
<!-- Created with Inkscape (http://www.inkscape.org/) -->
<svg id="svg863" width="91mm" height="80.537mm" version="1.1" viewBox="0 0 91 80.537" xmlns="http://www.w3.org/2000/svg" xmlns:cc="http://creativecommons.org/ns#" xmlns:dc="http://purl.org/dc/elements/1.1/" xmlns:rdf="http://www.w3.org/1999/02/22-rdf-syntax-ns#">
 <metadata id="metadata860">
  <rdf:RDF>
   <cc:Work rdf:about="">
    <dc:format>image/svg+xml</dc:format>
    <dc:type rdf:resource="http://purl.org/dc/dcmitype/StillImage"/>
    <dc:title/>
   </cc:Work>
  </rdf:RDF>
 </metadata>
 <g id="layer1" transform="translate(0 -216.46)">
  <path id="path814" d="m84.55 290.55-39.05-67.637-39.05 67.637z" fill="none" stroke="#dc0a14" stroke-linejoin="round" stroke-width="11.9"/>
  <path id="path818" d="m81.173 288.6-35.673-61.788-35.673 61.787z" fill="#fff"/>
  <path id="path1979" d="m22.89 272.7-7.3902 12.8h14.2v-1.3007c1.6721 0.0738 1.7477 1.3007 3.9501 1.3007s2.2775-1.2256 3.9496-1.2997c1.6721 0.0738 1.7477 1.2997 3.9501 1.2997 2.2022 1e-5 2.2785-1.2267 3.9501-1.3007 1.6717 0.074 1.7479 1.3007 3.9501 1.3007 2.2024 1e-5 2.278-1.2259 3.9501-1.2997 1.6721 0.074 1.7472 1.2997 3.9496 1.2997 2.2025 1e-5 2.278-1.2269 3.9501-1.3007v1.3007h14.2l-7.3902-12.8h-6.8099v2.3999c-2.2024-1e-5 -2.2024 1.3002-3.9501 1.3002s-1.7472-1.3002-3.9496-1.3002-2.2024 1.3002-3.9501 1.3002c-1.7476 0-1.7482-1.3-3.9501-1.3002-2.202 1.8e-4 -2.2025 1.3002-3.9501 1.3002-1.7477 0-1.7477-1.3002-3.9501-1.3002s-2.2019 1.3002-3.9496 1.3002-1.7477-1.3002-3.9501-1.3002v-2.3999zm6.8099 3.6995c1.6721 0.0738 1.7477 1.3002 3.9501 1.3002s2.2775-1.2256 3.9496-1.2997c1.6721 0.0738 1.7477 1.2997 3.9501 1.2997 2.2022 0 2.2785-1.2262 3.9501-1.3002 1.6717 0.074 1.7479 1.3002 3.9501 1.3002 2.2024 0 2.278-1.2259 3.9501-1.2997 1.6721 0.074 1.7472 1.2997 3.9496 1.2997 2.2025 0 2.278-1.2264 3.9501-1.3002v1.3007c-2.2024 0-2.2024 1.3002-3.9501 1.3002s-1.7472-1.3002-3.9496-1.3002-2.2024 1.3002-3.9501 1.3002c-1.7476 0-1.7482-1.3-3.9501-1.3002-2.202 1.8e-4 -2.2025 1.3002-3.9501 1.3002-1.7477 0-1.7477-1.3002-3.9501-1.3002s-2.2019 1.3002-3.9496 1.3002-1.7477-1.3002-3.9501-1.3002zm0 2.5998c1.6721 0.0738 1.7477 1.3007 3.9501 1.3007s2.2775-1.2256 3.9496-1.2997c1.6721 0.0738 1.7477 1.2997 3.9501 1.2997 2.2022 1e-5 2.2785-1.2267 3.9501-1.3007 1.6717 0.074 1.7479 1.3007 3.9501 1.3007 2.2024 1e-5 2.278-1.2259 3.9501-1.2997 1.6721 0.074 1.7472 1.2997 3.9496 1.2997 2.2025 0 2.278-1.2269 3.9501-1.3007v1.3007c-2.2024 0-2.2024 1.3002-3.9501 1.3002s-1.7472-1.3002-3.9496-1.3002-2.2024 1.3002-3.9501 1.3002c-1.7476 0-1.7482-1.3-3.9501-1.3002-2.202 1.8e-4 -2.2025 1.3002-3.9501 1.3002-1.7477 0-1.7477-1.3002-3.9501-1.3002s-2.2019 1.3002-3.9496 1.3002-1.7477-1.3002-3.9501-1.3002zm0 2.6004c1.6721 0.0738 1.7477 1.3002 3.9501 1.3002s2.2775-1.2256 3.9496-1.2997c1.6721 0.0738 1.7477 1.2997 3.9501 1.2997 2.2022 1e-5 2.2785-1.2262 3.9501-1.3002 1.6717 0.074 1.7479 1.3002 3.9501 1.3002 2.2024 1e-5 2.278-1.2259 3.9501-1.2997 1.6721 0.074 1.7472 1.2997 3.9496 1.2997 2.2025 0 2.278-1.2264 3.9501-1.3002v1.3007c-2.2024 0-2.2024 1.3002-3.9501 1.3002-1.7477 1e-5 -1.7472-1.3002-3.9496-1.3002s-2.2024 1.3002-3.9501 1.3002c-1.7476 0-1.7482-1.3-3.9501-1.3002-2.202 1.7e-4 -2.2025 1.3002-3.9501 1.3002-1.7477 0-1.7477-1.3002-3.9501-1.3002s-2.2019 1.3002-3.9496 1.3002-1.7477-1.3002-3.9501-1.3002z" clip-rule="evenodd"/>
  <path id="rect2110" d="m27.623 270.14 24.869-20.138 2.0768 2.5646-24.869 20.138z" style="paint-order:stroke fill markers"/>
 </g>
</svg>
