<?xml version="1.0" encoding="UTF-8"?>
<!-- Created with Inkscape (http://www.inkscape.org/) -->
<svg id="svg863" width="91mm" height="80.537mm" version="1.1" viewBox="0 0 91 80.537" xmlns="http://www.w3.org/2000/svg" xmlns:cc="http://creativecommons.org/ns#" xmlns:dc="http://purl.org/dc/elements/1.1/" xmlns:rdf="http://www.w3.org/1999/02/22-rdf-syntax-ns#">
 <metadata id="metadata860">
  <rdf:RDF>
   <cc:Work rdf:about="">
    <dc:format>image/svg+xml</dc:format>
    <dc:type rdf:resource="http://purl.org/dc/dcmitype/StillImage"/>
    <dc:title/>
   </cc:Work>
  </rdf:RDF>
 </metadata>
 <g id="layer1" transform="translate(0 -216.46)">
  <path id="path814" d="m84.55 290.55-39.05-67.637-39.05 67.637z" fill="none" stroke="#dc0a14" stroke-linejoin="round" stroke-width="11.9"/>
  <path id="path818" d="m81.173 288.6-35.673-61.788-35.673 61.787z" fill="#fff"/>
  <path id="symbol" d="m61.051 268.47-2.0672-0.7524-4.2212 2.8268-9.2262-3.8899 0.7525-2.0675 9.9303-9.1558-3.101-1.1287-14.681 9.3426c-2.2176-0.79755-5.624-1.8682-6.2634-2.0888-1.243-0.43882-2.7955 0.0574-3.2283 0.97519-0.25842 0.98132 0.6119 2.3593 1.8462 2.8222 0.63164 0.24202 3.9292 1.6117 6.1407 2.4259l5.2407 16.593 3.101 1.1287-1.7218-13.397 0.7525-2.0675 9.568 2.9507 1.4166 4.8788 2.0672 0.75239 0.38265-4.9689 1.0885-0.24236-0.67808-0.88537z"/>
 </g>
</svg>
