<?xml version="1.0" encoding="UTF-8"?>
<svg id="svg10957" width="960" height="960" version="1.0" xmlns="http://www.w3.org/2000/svg">
 <path id="path10344" d="m0 480c0-265.1 214.9-480 480-480s480 214.9 480 480-214.9 480-480 480-480-214.9-480-480" fill="#176fc1"/>
 <g id="layer1" transform="matrix(3.7795 0 0 3.7795 276.9 -258.75)">
  <g id="g1061" transform="matrix(.33555 0 0 .33555 -21.425 109.56)">
   <rect id="rect1038" x="97.108" y="396.7" width="246.77" height="115.3" fill-rule="evenodd" stroke-width="0"/>
   <path id="path203" d="m370.7 96.1c-24.6-56.6-81-96.1-146.7-96.1s-122.1 39.5-146.7 96.1c-16.4 1.4-29.3 15.1-29.3 31.9v64c0 16.8 12.9 30.5 29.3 31.9 24.6 56.6 81 96.1 146.7 96.1s122.1-39.5 146.7-96.1c16.4-1.4 29.3-15.1 29.3-31.9v-64c0-16.8-12.9-30.5-29.3-31.9zm-34.7 47.9v16c0 53-43 96-96 96h-32c-53 0-96-43-96-96v-16c0-26.5 21.5-48 48-48h128c26.5 0 48 21.5 48 48zm-146.7 18.7-6-21.2c-0.9-3.3-3.9-5.5-7.3-5.5s-6.4 2.2-7.3 5.5l-6 21.2-21.2 6c-3.3 0.9-5.5 3.9-5.5 7.3s2.2 6.4 5.5 7.3l21.2 6 6 21.2c0.9 3.3 3.9 5.5 7.3 5.5s6.4-2.2 7.3-5.5l6-21.2 21.2-6c3.3-0.9 5.5-3.9 5.5-7.3s-2.2-6.4-5.5-7.3zm-76.6 153.8c-66 26.1-112.7 90.5-112.7 165.8 0 16.4 13.3 29.7 29.7 29.7h98.3v-64c0-17.7 14.3-32 32-32h128c17.7 0 32 14.3 32 32v64h98.3c16.4 0 29.7-13.3 29.7-29.7 0-75.3-46.7-139.7-112.7-165.8-31.4 22.3-69.8 35.5-111.3 35.5s-79.9-13.2-111.3-35.5zm63.3 131.5c-8.8 0-16 7.2-16 16v48h32v-48c0-8.8-7.2-16-16-16zm96 32a16 16 0 1 0 0-32 16 16 0 1 0 0 32z" fill="#fff" stroke="#000"/>
   <path id="path1036" d="m198.83 254.73c-42.301-4.4561-75.886-35.218-84.349-77.258-1.2603-6.2609-1.4179-8.9072-1.4267-23.963-8e-3 -14.52 0.15286-17.499 1.1355-20.963 5.1684-18.222 18.782-31.048 36.909-34.774 4.2348-0.87034 13.239-0.993 72.898-0.993s68.663 0.12266 72.898 0.993c18.128 3.7256 31.741 16.551 36.909 34.774 0.98263 3.4645 1.144 6.443 1.1355 20.963-9e-3 15.056-0.16634 17.702-1.4267 23.963-8.5218 42.333-41.936 72.74-84.909 77.267-6.665 0.70217-43.085 0.69536-49.774-9e-3zm-18.036-39.404c2.3675-1.4437 2.7164-2.2739 6.1938-14.739 1.5291-5.4811 3.0065-10.174 3.283-10.428 0.27654-0.25432 5.4038-1.8209 11.394-3.4812 12.041-3.3377 14.068-4.546 14.879-8.8729 0.55082-2.9362-0.80345-6.8725-2.8973-8.4213-0.8656-0.64029-4.6737-2.0213-8.4625-3.0688s-8.7562-2.4544-11.039-3.1263l-4.1502-1.2216-3.0586-10.793c-1.6822-5.9362-3.6272-11.637-4.3222-12.669-2.6163-3.884-8.5904-4.4218-12.255-1.1033-1.5905 1.4403-2.339 3.3589-5.0612 12.974-1.757 6.2058-3.282 11.381-3.3888 11.499-0.10682 0.11883-4.9527 1.5592-10.769 3.2008-5.8159 1.6416-11.211 3.3254-11.989 3.7418-4.4815 2.3984-5.1017 10.465-1.0624 13.817 0.54697 0.45394 6.1367 2.2937 12.422 4.0884l11.427 3.2631 2.8857 10.089c1.5871 5.5488 3.2572 10.985 3.7112 12.081 1.1037 2.6646 4.0095 4.3472 7.5073 4.3472 1.6565 0 3.6176-0.4859 4.7513-1.1772z" fill-rule="evenodd" stroke-width="0"/>
  </g>
 </g>
</svg>
