<?xml version="1.0" encoding="UTF-8"?>
<svg id="svg13" width="685pt" height="600pt" version="1.1" viewBox="0 0 685 600" xmlns="http://www.w3.org/2000/svg">
 <g id="surface1" fill-rule="evenodd" stroke="#000202" stroke-miterlimit="2.613">
  <path id="path2" transform="scale(3.4526 3.4562)" d="m197.46 164.74-93.339-161.8-0.57813-0.86348-0.71844-0.64874-0.7897-0.57415-0.93679-0.43287-0.93453-0.28594-1.0069-0.073463-1.0047 0.073463-1.0069 0.28594-0.86325 0.43287-0.86325 0.57415-0.64942 0.64874-0.57361 0.86348-93.339 161.8-0.43445 0.93355-0.2885 0.93807-0.070146 1.007 0.070146 1.0048 0.2885 1.007 0.43445 0.86348 0.57361 0.86348 0.64489 0.64874 0.86325 0.57414 0.86325 0.42948 1.0081 0.28933 1.0069 0.0701h186.68l1.0069-0.0701 0.9334-0.28933 0.93452-0.42948 0.79311-0.57414 0.71843-0.64874 0.57361-0.86348 0.43445-0.86348 0.28511-1.007 0.0735-1.0048-0.0735-1.007-0.28511-0.93807z" fill="#000202" stroke-width=".12784"/>
  <path id="path4" transform="scale(3.4526 3.4562)" d="m99.158 18.115 82.699 143.39h-165.4z" fill="#ebbd28" stroke-width=".12784"/>
  <path id="path10" d="m290.26 281.26 27.102 96.57h-11.715l-49.438-99.605 1.7239-1.521 1.9605-1.0749 4.3468-1.3047h4.5496l4.5496 0.65575 4.3401 1.0749 4.3468 1.5143zm47.896-1.0749v97.645h-11.905l-27.541-97.645 4.1305-3.4815 4.766-2.5892 5.2054-1.7306 5.415-0.44615 5.4149 0.8653 5.2054 1.7306 4.7795 2.6162zm48.153 0.65574-27.751 96.989h-11.932v-97.645l4.5564-3.0353 4.7592-2.6162 5.2053-1.9402 2.6162-0.44615 2.7987-0.2096 2.8258 0.2096 2.5892 0.65574 5.2054 1.9672 4.7862 2.7987zm42.272-2.6162-49.438 99.605h-11.695l27.521-96.779 8.2407-3.6911 4.1305-1.521 4.3401-1.0749 4.5496-0.43941 4.3401 0.2096 4.3198 1.0952 1.9605 1.0749zm-77.844 130.61-0.65579-3.4545-1.5143-3.0421-2.3796-2.3796-3.0353-1.5211-3.4747-0.65575-3.4545 0.65575-3.0353 1.5211-2.3796 2.3796-1.5414 3.0421-0.63547 3.4545 0.63547 3.4815 1.5414 3.0421 2.3796 2.3796 3.0353 1.5211 3.4545 0.65574 3.4747-0.65574 3.0353-1.5211 2.3796-2.3796 1.5143-3.0421zm24.066-22.545-19.28 39.04-1.521-1.5143-1.9605-0.65573-2.1701-0.20959-15.17 2.5892-2.17 1.1019-1.7238 1.7306-21.031-42.082zm60.497-102.64-76.979 154.93 6.0707 36.215v2.1768l-0.86532 2.17-1.5143 1.9402-22.971 18.665 19.936 21.917 1.3047 2.3864 0.44635 2.6162-0.65579 2.3864-1.5143 2.1497-2.3796 1.3047-2.6162 0.44622-2.3796-0.65575-2.1701-1.5211-1.521-1.9605-0.86531 2.6162-1.5143 1.9402-2.17 1.3047-2.6162 0.4462-2.3796-0.67606-2.17-1.7306-24.486-27.102-1.3047-2.3864-0.44634-2.6162 0.88559-2.5892 1.494-2.1768 25.608-20.605-3.8922-22.232-84.356-169.78-0.86532-1.3115-0.44616-1.521 0.20955-3.0354 2.1971-7.8013 3.0083-7.5985 3.9209-7.1726 4.5564-6.936 4.9688-6.287 5.6516-6.0774 6.0639-5.6245 6.2802-5.0026 6.7197-4.766 7.1658-3.9007 7.3754-3.6911 7.5849-2.8325 7.8013-2.3796 8.0244-1.7306 8.2407-0.88559 8.2407-0.20958 8.0312 0.88559 8.0041 1.521 8.0244 2.1498 7.5917 2.8258 7.3754 3.4815 7.1388 4.1102 6.9563 4.3468 6.2803 5.2121 6.0639 5.3947 5.8611 5.8611 4.9958 6.3141 4.7592 6.7061 3.9006 7.1726 3.4748 7.5917 2.17 7.8013 0.41887 1.9672v2.17l-0.41887 1.9402z" fill="#000202" stroke-width=".16719"/>
 </g>
</svg>
